{
  "accessors": [
    {
      "bufferView": 2,
      "componentType": 5126,
      "count": 1544,
      "max": [
        1.912726640701294,
        1.9239628314971924,
        2.5663504600524902
      ],
      "min": [
        -1.9127253293991089,
        -1.912726640701294,
        -0.16045621037483215
      ],
      "type": "VEC3"
    },
    {
      "bufferView": 2,
      "byteOffset": 18528,
      "componentType": 5126,
      "count": 1544,
      "max": [
        1.0,
        1.0,
        1.0
      ],
      "min": [
        -1.0,
        -1.0,
        -1.0
      ],
      "type": "VEC3"
    },
    {
      "bufferView": 3,
      "componentType": 5126,
      "count": 1544,
      "max": [
        1.0,
        1.0,
        0.9990028142929077,
        1.0
      ],
      "min": [
        -1.0,
        -1.0,
        -0.999500036239624,
        -1.0
      ],
      "type": "VEC4"
    },
    {
      "bufferView": 1,
      "componentType": 5126,
      "count": 1544,
      "max": [
        0.9990234375,
        0.92951899766922
      ],
      "min": [
        0.0009765625,
        0.0009765625
      ],
      "type": "VEC2"
    },
    {
      "bufferView": 1,
      "byteOffset": 12352,
      "componentType": 5126,
      "count": 1544,
      "max": [
        0.9990234375,
        0.92951899766922
      ],
      "min": [
        0.0009765625,
        0.0009765625
      ],
      "type": "VEC2"
    },
    {
      "bufferView": 0,
      "componentType": 5125,
      "count": 7584,
      "type": "SCALAR"
    },
    {
      "bufferView": 2,
      "byteOffset": 37056,
      "componentType": 5126,
      "count": 1386,
      "max": [
        1.6259315013885498,
        1.9066840410232544,
        1.696509838104248
      ],
      "min": [
        -1.5734190940856934,
        -1.9883859157562256,
        0.9716446399688721
      ],
      "type": "VEC3"
    },
    {
      "bufferView": 2,
      "byteOffset": 53688,
      "componentType": 5126,
      "count": 1386,
      "max": [
        0.9983038902282715,
        0.998236894607544,
        0.9999971985816956
      ],
      "min": [
        -0.9981056451797485,
        -0.9963539838790894,
        -0.999989926815033
      ],
      "type": "VEC3"
    },
    {
      "bufferView": 3,
      "byteOffset": 24704,
      "componentType": 5126,
      "count": 1386,
      "max": [
        0.9991698861122131,
        0.9972600340843201,
        0.7873846888542175,
        1.0
      ],
      "min": [
        -0.9707897305488586,
        -0.9993270635604858,
        -0.8401650190353394,
        1.0
      ],
      "type": "VEC4"
    },
    {
      "bufferView": 1,
      "byteOffset": 24704,
      "componentType": 5126,
      "count": 1386,
      "max": [
        0.9987772703170776,
        0.9990234375
      ],
      "min": [
        0.0009765625,
        0.0009765625
      ],
      "type": "VEC2"
    },
    {
      "bufferView": 1,
      "byteOffset": 35792,
      "componentType": 5126,
      "count": 1386,
      "max": [
        0.9987772703170776,
        0.9990234375
      ],
      "min": [
        0.0009765625,
        0.0009765625
      ],
      "type": "VEC2"
    },
    {
      "bufferView": 0,
      "byteOffset": 30336,
      "componentType": 5125,
      "count": 5280,
      "type": "SCALAR"
    },
    {
      "bufferView": 2,
      "byteOffset": 70320,
      "componentType": 5126,
      "count": 1119,
      "max": [
        2.2478318214416504,
        1.2419215440750122,
        0.7539808750152588
      ],
      "min": [
        -1.2619816064834595,
        -1.801779866218567,
        0.536848783493042
      ],
      "type": "VEC3"
    },
    {
      "bufferView": 2,
      "byteOffset": 83748,
      "componentType": 5126,
      "count": 1119,
      "max": [
        0.5999104380607605,
        0.6940593123435974,
        1.0
      ],
      "min": [
        -0.7637348175048828,
        -0.5018200874328613,
        -0.9274840354919434
      ],
      "type": "VEC3"
    },
    {
      "bufferView": 3,
      "byteOffset": 46880,
      "componentType": 5126,
      "count": 1119,
      "max": [
        0.8440548777580261,
        0.9214080572128296,
        0.7557942867279053,
        1.0
      ],
      "min": [
        -0.8345380425453186,
        -0.9944969415664673,
        -0.6200249195098877,
        -1.0
      ],
      "type": "VEC4"
    },
    {
      "bufferView": 1,
      "byteOffset": 46880,
      "componentType": 5126,
      "count": 1119,
      "max": [
        0.6873588562011719,
        0.9990234375
      ],
      "min": [
        0.0009765625,
        0.0009765625
      ],
      "type": "VEC2"
    },
    {
      "bufferView": 1,
      "byteOffset": 55832,
      "componentType": 5126,
      "count": 1119,
      "max": [
        0.6873588562011719,
        0.9990234375
      ],
      "min": [
        0.0009765625,
        0.0009765625
      ],
      "type": "VEC2"
    },
    {
      "bufferView": 0,
      "byteOffset": 51456,
      "componentType": 5125,
      "count": 5580,
      "type": "SCALAR"
    },
    {
      "bufferView": 2,
      "byteOffset": 97176,
      "componentType": 5126,
      "count": 1119,
      "max": [
        2.2787413597106934,
        2.3978943824768066,
        0.7539818286895752
      ],
      "min": [
        -1.3459892272949219,
        -0.1454542577266693,
        0.28013211488723755
      ],
      "type": "VEC3"
    },
    {
      "bufferView": 2,
      "byteOffset": 110604,
      "componentType": 5126,
      "count": 1119,
      "max": [
        0.9974430203437805,
        0.9372324347496033,
        1.0
      ],
      "min": [
        -0.6957252621650696,
        -0.7877955436706543,
        -0.8371798992156982
      ],
      "type": "VEC3"
    },
    {
      "bufferView": 3,
      "byteOffset": 64784,
      "componentType": 5126,
      "count": 1119,
      "max": [
        0.6584732532501221,
        0.999815821647644,
        0.7558057904243469,
        1.0
      ],
      "min": [
        -0.8328684568405151,
        -0.9050210118293762,
        -0.794256329536438,
        -1.0
      ],
      "type": "VEC4"
    },
    {
      "bufferView": 1,
      "byteOffset": 64784,
      "componentType": 5126,
      "count": 1119,
      "max": [
        0.6873588562011719,
        0.9990234375
      ],
      "min": [
        0.0009765625,
        0.0009765625
      ],
      "type": "VEC2"
    },
    {
      "bufferView": 1,
      "byteOffset": 73736,
      "componentType": 5126,
      "count": 1119,
      "max": [
        0.6873588562011719,
        0.9990234375
      ],
      "min": [
        0.0009765625,
        0.0009765625
      ],
      "type": "VEC2"
    },
    {
      "bufferView": 0,
      "byteOffset": 73776,
      "componentType": 5125,
      "count": 5580,
      "type": "SCALAR"
    },
    {
      "bufferView": 2,
      "byteOffset": 124032,
      "componentType": 5126,
      "count": 1113,
      "max": [
        1.2083481550216675,
        1.5789202451705933,
        0.7539815902709961
      ],
      "min": [
        -2.4163825511932373,
        -0.9644283652305603,
        0.28013187646865845
      ],
      "type": "VEC3"
    },
    {
      "bufferView": 2,
      "byteOffset": 137388,
      "componentType": 5126,
      "count": 1113,
      "max": [
        0.9974437952041626,
        0.9372456669807434,
        1.0
      ],
      "min": [
        -0.6957219839096069,
        -0.7877955436706543,
        -0.8371818661689758
      ],
      "type": "VEC3"
    },
    {
      "bufferView": 3,
      "byteOffset": 82688,
      "componentType": 5126,
      "count": 1113,
      "max": [
        0.6584739685058594,
        0.9998160004615784,
        0.7557941675186157,
        1.0
      ],
      "min": [
        -0.8328931927680969,
        -0.9050490260124207,
        -0.7942400574684143,
        -1.0
      ],
      "type": "VEC4"
    },
    {
      "bufferView": 1,
      "byteOffset": 82688,
      "componentType": 5126,
      "count": 1113,
      "max": [
        0.6873588562011719,
        0.9990234375
      ],
      "min": [
        0.0009765625,
        0.0009765625
      ],
      "type": "VEC2"
    },
    {
      "bufferView": 1,
      "byteOffset": 91592,
      "componentType": 5126,
      "count": 1113,
      "max": [
        0.6873588562011719,
        0.9990234375
      ],
      "min": [
        0.0009765625,
        0.0009765625
      ],
      "type": "VEC2"
    },
    {
      "bufferView": 0,
      "byteOffset": 96096,
      "componentType": 5125,
      "count": 5580,
      "type": "SCALAR"
    },
    {
      "bufferView": 2,
      "byteOffset": 150744,
      "componentType": 5126,
      "count": 1109,
      "max": [
        1.1281601190567017,
        1.3597344160079956,
        0.7539805173873901
      ],
      "min": [
        -1.7997578382492065,
        -2.35355281829834,
        0.5368485450744629
      ],
      "type": "VEC3"
    },
    {
      "bufferView": 2,
      "byteOffset": 164052,
      "componentType": 5126,
      "count": 1109,
      "max": [
        0.6947274804115295,
        0.6345100998878479,
        1.0
      ],
      "min": [
        -0.6960971355438232,
        -0.4833662509918213,
        -0.927514910697937
      ],
      "type": "VEC3"
    },
    {
      "bufferView": 3,
      "byteOffset": 100496,
      "componentType": 5126,
      "count": 1109,
      "max": [
        0.9727246165275574,
        0.9948645234107971,
        0.7558050155639648,
        1.0
      ],
      "min": [
        -0.9906187653541565,
        -0.988507091999054,
        -0.6200242042541504,
        -1.0
      ],
      "type": "VEC4"
    },
    {
      "bufferView": 1,
      "byteOffset": 100496,
      "componentType": 5126,
      "count": 1109,
      "max": [
        0.6873588562011719,
        0.9990234375
      ],
      "min": [
        0.0009765625,
        0.0009765625
      ],
      "type": "VEC2"
    },
    {
      "bufferView": 1,
      "byteOffset": 109368,
      "componentType": 5126,
      "count": 1109,
      "max": [
        0.6873588562011719,
        0.9990234375
      ],
      "min": [
        0.0009765625,
        0.0009765625
      ],
      "type": "VEC2"
    },
    {
      "bufferView": 0,
      "byteOffset": 118416,
      "componentType": 5125,
      "count": 5580,
      "type": "SCALAR"
    }
  ],
  "asset": {
    "extras": {
      "author": "erebus3d (https://sketchfab.com/erebus3d)",
      "license": "CC-BY-4.0 (http://creativecommons.org/licenses/by/4.0/)",
      "source": "https://sketchfab.com/3d-models/burger-realistic-free-18e59d7dbd2243c69f469e0f056f44c4",
      "title": "Burger Realistic (Free)"
    },
    "generator": "Sketchfab-15.44.0",
    "version": "2.0"
  },
  "bufferViews": [
    {
      "buffer": 0,
      "byteLength": 140736,
      "name": "floatBufferViews",
      "target": 34963
    },
    {
      "buffer": 0,
      "byteLength": 118240,
      "byteOffset": 140736,
      "byteStride": 8,
      "name": "floatBufferViews",
      "target": 34962
    },
    {
      "buffer": 0,
      "byteLength": 177360,
      "byteOffset": 258976,
      "byteStride": 12,
      "name": "floatBufferViews",
      "target": 34962
    },
    {
      "buffer": 0,
      "byteLength": 118240,
      "byteOffset": 436336,
      "byteStride": 16,
      "name": "floatBufferViews",
      "target": 34962
    }
  ],
  "buffers": [
    {
      "byteLength": 554576,
      "uri": "scene.bin"
    }
  ],
  "extensionsUsed": [
    "KHR_materials_specular"
  ],
  "images": [
    {
      "uri": "textures/bun.001_baseColor.jpeg"
    },
    {
      "uri": "textures/bun.001_normal.png"
    },
    {
      "uri": "textures/vegies.001_baseColor.jpeg"
    },
    {
      "uri": "textures/vegies.001_normal.png"
    },
    {
      "uri": "textures/lettuce.001_baseColor.jpeg"
    },
    {
      "uri": "textures/lettuce.001_normal.png"
    }
  ],
  "materials": [
    {
      "doubleSided": true,
      "extensions": {
        "KHR_materials_specular": {
          "specularColorFactor": [
            1.0,
            1.0,
            1.0
          ],
          "specularFactor": 0.6028951560601195
        }
      },
      "name": "bun.001",
      "normalTexture": {
        "index": 1
      },
      "pbrMetallicRoughness": {
        "baseColorTexture": {
          "index": 0
        },
        "metallicFactor": 0.0,
        "roughnessFactor": 0.26917773286235097
      }
    },
    {
      "doubleSided": true,
      "extensions": {
        "KHR_materials_specular": {
          "specularColorFactor": [
            1.0,
            1.0,
            1.0
          ],
          "specularFactor": 0.44548127719324754
        }
      },
      "name": "vegies.001",
      "normalTexture": {
        "index": 3
      },
      "pbrMetallicRoughness": {
        "baseColorTexture": {
          "index": 2
        },
        "metallicFactor": 0.11806040915015395,
        "roughnessFactor": 0.44548127719324754
      }
    },
    {
      "doubleSided": true,
      "extensions": {
        "KHR_materials_specular": {
          "specularColorFactor": [
            1.0,
            1.0,
            1.0
          ],
          "specularFactor": 0.5336330493586958
        }
      },
      "name": "lettuce.001",
      "normalTexture": {
        "index": 5
      },
      "pbrMetallicRoughness": {
        "baseColorTexture": {
          "index": 4
        },
        "metallicFactor": 0.07398452306742981,
        "roughnessFactor": 0.2943639534810505
      }
    }
  ],
  "meshes": [
    {
      "name": "bun_bun.001_0",
      "primitives": [
        {
          "attributes": {
            "NORMAL": 1,
            "POSITION": 0,
            "TANGENT": 2,
            "TEXCOORD_0": 3,
            "TEXCOORD_1": 4
          },
          "indices": 5,
          "material": 0,
          "mode": 4
        }
      ]
    },
    {
      "name": "vegeis_vegies.001_0",
      "primitives": [
        {
          "attributes": {
            "NORMAL": 7,
            "POSITION": 6,
            "TANGENT": 8,
            "TEXCOORD_0": 9,
            "TEXCOORD_1": 10
          },
          "indices": 11,
          "material": 1,
          "mode": 4
        }
      ]
    },
    {
      "name": "pPlane14_lettuce.001_0",
      "primitives": [
        {
          "attributes": {
            "NORMAL": 13,
            "POSITION": 12,
            "TANGENT": 14,
            "TEXCOORD_0": 15,
            "TEXCOORD_1": 16
          },
          "indices": 17,
          "material": 2,
          "mode": 4
        }
      ]
    },
    {
      "name": "pPlane15_lettuce.001_0",
      "primitives": [
        {
          "attributes": {
            "NORMAL": 19,
            "POSITION": 18,
            "TANGENT": 20,
            "TEXCOORD_0": 21,
            "TEXCOORD_1": 22
          },
          "indices": 23,
          "material": 2,
          "mode": 4
        }
      ]
    },
    {
      "name": "pPlane16_lettuce.001_0",
      "primitives": [
        {
          "attributes": {
            "NORMAL": 25,
            "POSITION": 24,
            "TANGENT": 26,
            "TEXCOORD_0": 27,
            "TEXCOORD_1": 28
          },
          "indices": 29,
          "material": 2,
          "mode": 4
        }
      ]
    },
    {
      "name": "pPlane17_lettuce.001_0",
      "primitives": [
        {
          "attributes": {
            "NORMAL": 31,
            "POSITION": 30,
            "TANGENT": 32,
            "TEXCOORD_0": 33,
            "TEXCOORD_1": 34
          },
          "indices": 35,
          "material": 2,
          "mode": 4
        }
      ]
    }
  ],
  "nodes": [
    {
      "children": [
        1
      ],
      "matrix": [
        1.0,
        0.0,
        0.0,
        0.0,
        0.0,
        2.220446049250313e-16,
        -1.0,
        0.0,
        0.0,
        1.0,
        2.220446049250313e-16,
        0.0,
        0.0,
        0.0,
        0.0,
        1.0
      ],
      "name": "Sketchfab_model"
    },
    {
      "children": [
        2
      ],
      "matrix": [
        0.009999999776482582,
        0.0,
        0.0,
        0.0,
        0.0,
        0.0,
        0.009999999776482582,
        0.0,
        0.0,
        -0.009999999776482582,
        0.0,
        0.0,
        0.0,
        0.0,
        0.0,
        1.0
      ],
      "name": "cefee34ab44e4b62928cfb5a1c621cb2.fbx"
    },
    {
      "children": [
        3,
        5,
        7,
        9,
        11,
        13
      ],
      "name": "RootNode"
    },
    {
      "children": [
        4
      ],
      "matrix": [
        100.0,
        0.0,
        0.0,
        0.0,
        0.0,
        -1.629206793918314e-05,
        -99.99999999999868,
        0.0,
        0.0,
        99.99999999999868,
        -1.629206793918314e-05,
        0.0,
        0.0,
        0.0,
        0.0,
        1.0
      ],
      "name": "bun"
    },
    {
      "mesh": 0,
      "name": "bun_bun.001_0"
    },
    {
      "children": [
        6
      ],
      "matrix": [
        100.0,
        0.0,
        0.0,
        0.0,
        0.0,
        -1.629206793918314e-05,
        -99.99999999999868,
        0.0,
        0.0,
        99.99999999999868,
        -1.629206793918314e-05,
        0.0,
        0.0,
        0.0,
        0.0,
        1.0
      ],
      "name": "vegeis"
    },
    {
      "mesh": 1,
      "name": "vegeis_vegies.001_0"
    },
    {
      "children": [
        8
      ],
      "matrix": [
        100.0,
        0.0,
        0.0,
        0.0,
        0.0,
        -1.629206793918314e-05,
        -99.99999999999868,
        0.0,
        0.0,
        99.99999999999868,
        -1.629206793918314e-05,
        0.0,
        0.0,
        0.0,
        0.0,
        1.0
      ],
      "name": "pPlane14"
    },
    {
      "mesh": 2,
      "name": "pPlane14_lettuce.001_0"
    },
    {
      "children": [
        10
      ],
      "matrix": [
        100.0,
        0.0,
        0.0,
        0.0,
        0.0,
        -1.629206793918314e-05,
        -99.99999999999868,
        0.0,
        0.0,
        99.99999999999868,
        -1.629206793918314e-05,
        0.0,
        0.0,
        0.0,
        0.0,
        1.0
      ],
      "name": "pPlane15"
    },
    {
      "mesh": 3,
      "name": "pPlane15_lettuce.001_0"
    },
    {
      "children": [
        12
      ],
      "matrix": [
        100.0,
        0.0,
        0.0,
        0.0,
        0.0,
        -1.629206793918314e-05,
        -99.99999999999868,
        0.0,
        0.0,
        99.99999999999868,
        -1.629206793918314e-05,
        0.0,
        0.0,
        0.0,
        0.0,
        1.0
      ],
      "name": "pPlane16"
    },
    {
      "mesh": 4,
      "name": "pPlane16_lettuce.001_0"
    },
    {
      "children": [
        14
      ],
      "matrix": [
        100.0,
        0.0,
        0.0,
        0.0,
        0.0,
        -1.629206793918314e-05,
        -99.99999999999868,
        0.0,
        0.0,
        99.99999999999868,
        -1.629206793918314e-05,
        0.0,
        0.0,
        0.0,
        0.0,
        1.0
      ],
      "name": "pPlane17"
    },
    {
      "mesh": 5,
      "name": "pPlane17_lettuce.001_0"
    }
  ],
  "samplers": [
    {
      "magFilter": 9729,
      "minFilter": 9987,
      "wrapS": 10497,
      "wrapT": 10497
    }
  ],
  "scene": 0,
  "scenes": [
    {
      "name": "Sketchfab_Scene",
      "nodes": [
        0
      ]
    }
  ],
  "textures": [
    {
      "sampler": 0,
      "source": 0
    },
    {
      "sampler": 0,
      "source": 1
    },
    {
      "sampler": 0,
      "source": 2
    },
    {
      "sampler": 0,
      "source": 3
    },
    {
      "sampler": 0,
      "source": 4
    },
    {
      "sampler": 0,
      "source": 5
    }
  ]
}
